<svg xmlns="http://www.w3.org/2000/svg" width="56" height="38" viewBox="0 0 56 38">
    <defs>
        <linearGradient id="a" x1="100%" x2="0%" y1="50%" y2="50%">
            <stop offset="0%" stop-color="#5353A1"/>
            <stop offset="100%" stop-color="#35BAD5"/>
        </linearGradient>
        <linearGradient id="b" x1="100%" x2="0%" y1="50%" y2="50%">
            <stop offset="0%" stop-color="#5353A1"/>
            <stop offset="100%" stop-color="#35BAD5"/>
        </linearGradient>
        <linearGradient id="c" x1="100%" x2="0%" y1="50%" y2="50%">
            <stop offset="0%" stop-color="#5353A1"/>
            <stop offset="100%" stop-color="#35BAD5"/>
        </linearGradient>
        <linearGradient id="d" x1="100%" x2="0%" y1="50%" y2="50%">
            <stop offset="0%" stop-color="#5353A1"/>
            <stop offset="100%" stop-color="#35BAD5"/>
        </linearGradient>
        <linearGradient id="e" x1="100%" x2="0%" y1="50%" y2="50%">
            <stop offset="0%" stop-color="#5353A1"/>
            <stop offset="100%" stop-color="#35BAD5"/>
        </linearGradient>
    </defs>
    <g fill="none" fill-rule="nonzero">
        <path fill="url(#a)" d="M50.069.036H5.822A5.829 5.829 0 0 0 0 5.858v25.617a5.829 5.829 0 0 0 5.822 5.822h44.247a5.829 5.829 0 0 0 5.822-5.822V5.858c0-3.209-2.61-5.822-5.822-5.822zm3.493 31.439a3.497 3.497 0 0 1-3.493 3.493H5.822a3.497 3.497 0 0 1-3.493-3.493V5.858a3.497 3.497 0 0 1 3.493-3.493h44.247a3.497 3.497 0 0 1 3.493 3.493v25.617z"/>
        <path fill="url(#b)" d="M17.466 23.324H8.15a1.165 1.165 0 0 0 0 2.329h9.315a1.165 1.165 0 0 0 0-2.329z"/>
        <path fill="url(#c)" d="M24.452 27.982H8.151a1.165 1.165 0 0 0 0 2.329h16.301a1.165 1.165 0 0 0 0-2.33z"/>
        <path fill="url(#d)" d="M45.495 6.503c.657.88.857 1.98.55 3.012-1.356 4.559-5.178 7.954-9.73 8.892l5.26 5.26a1.165 1.165 0 0 1-.821 1.986 1.17 1.17 0 0 1-.825-.34l-6.163-6.162-6.163 6.162a1.17 1.17 0 0 1-1.646 0 1.166 1.166 0 0 1-.09-1.545l.09-.101 5.26-5.26c-4.55-.94-8.372-4.334-9.727-8.892a3.383 3.383 0 0 1 .55-3.012c.859-1.157 2.377-1.686 3.74-1.278 3.601 1.07 6.477 3.681 7.988 6.975 1.51-3.294 4.386-5.904 7.987-6.975 1.362-.408 2.879.123 3.74 1.278zm-20.677.909c-.345 0-.687.181-.913.484a1.063 1.063 0 0 0-.184.955c1.192 4.008 4.713 6.916 8.805 7.412-.494-4.09-3.402-7.615-7.412-8.807a1.083 1.083 0 0 0-.296-.044zm17.899 0c-.098 0-.198.016-.298.044-4.008 1.192-6.919 4.716-7.413 8.807 4.092-.493 7.615-3.402 8.805-7.412a1.063 1.063 0 0 0-.184-.955 1.154 1.154 0 0 0-.91-.484z"/>
        <path fill="url(#e)" d="M33.767.036c.643 0 1.165.522 1.165 1.165l-.001 15.136h19.795c.6 0 1.095.455 1.158 1.038l.007.127c0 .643-.522 1.165-1.164 1.165H34.93v17.466c0 .6-.454 1.094-1.037 1.157l-.127.007a1.165 1.165 0 0 1-1.164-1.164l-.001-17.467H1.164c-.6 0-1.094-.454-1.157-1.037L0 17.502c0-.643.522-1.164 1.164-1.164h31.438V1.2c0-.6.455-1.095 1.039-1.158z"/>
    </g>
</svg>
