<svg xmlns="http://www.w3.org/2000/svg" width="45" height="45" viewBox="0 0 45 45">
    <defs>
        <linearGradient id="a" x1="100%" x2="0%" y1="50%" y2="50%">
            <stop offset="0%" stop-color="#35BAD5"/>
            <stop offset="56.931%" stop-color="#35BAD5"/>
            <stop offset="100%" stop-color="#35BAD5"/>
        </linearGradient>
    </defs>
    <g fill="none" fill-rule="evenodd">
        <circle cx="22.5" cy="22.5" r="22.5" fill="url(#a)"/>
        <path fill="#FFF" fill-rule="nonzero" d="M31.327 13.658c-4.871-4.871-12.798-4.871-17.669 0a12.442 12.442 0 0 0-3.38 6.21c-.49 2.29-.33 4.664.463 6.864a.509.509 0 0 0 .957-.345 11.5 11.5 0 0 1-.426-6.307 11.427 11.427 0 0 1 3.105-5.703c4.475-4.475 11.756-4.475 16.23 0a11.407 11.407 0 0 1 3.36 7.976 11.414 11.414 0 0 1-3.229 8.118l-.13.136c-4.475 4.475-11.756 4.475-16.23 0a3.736 3.736 0 0 1-.07-.072 5.516 5.516 0 0 1 .003-.445l.005-.102c.004-.067.007-.135.012-.202l.01-.12.018-.18c.004-.043.01-.086.016-.128l.022-.172.021-.13c.01-.055.018-.11.029-.165l.026-.13c.01-.055.021-.109.033-.163l.031-.13.04-.159c.01-.043.023-.086.035-.13l.045-.155.04-.129.05-.152.045-.128a8.601 8.601 0 0 1 .22-.547 7.923 7.923 0 0 1 .88-1.518c.03-.043.063-.086.095-.128l.082-.105a7.979 7.979 0 0 1 .292-.348l.087-.098.112-.12.09-.093.118-.116.093-.09c.04-.039.082-.076.123-.114l.095-.085c.042-.038.086-.074.13-.11.031-.028.063-.055.095-.081l.137-.109.096-.075c.048-.037.098-.072.147-.108l.093-.067c.055-.039.11-.076.166-.113l.082-.055c.072-.047.146-.092.22-.137.011-.007.022-.015.034-.021.086-.052.173-.102.26-.15.03-.017.062-.032.092-.048.059-.032.117-.063.176-.093l.116-.055c.048-.024.096-.048.146-.07a4.97 4.97 0 0 0 3.427 1.378 4.97 4.97 0 0 0 3.427-1.378 8.28 8.28 0 0 1 4.07 4.143.508.508 0 1 0 .932-.41 9.167 9.167 0 0 0-4.324-4.534c.559-.82.861-1.788.861-2.787a4.973 4.973 0 0 0-4.966-4.967.509.509 0 0 0 0 1.017 3.954 3.954 0 0 1 3.95 3.95c0 .974-.362 1.911-1.02 2.64a3.955 3.955 0 0 1-2.93 1.31 3.955 3.955 0 0 1-2.932-1.31 3.94 3.94 0 0 1 .153-5.448.508.508 0 1 0-.715-.723 4.93 4.93 0 0 0-1.473 3.53c0 .999.301 1.966.86 2.786l-.015.008-.118.06-.18.096c-.042.022-.083.046-.125.07l-.166.095-.126.077-.157.098-.125.083a9.11 9.11 0 0 0-1.044.81 9.077 9.077 0 0 0-.366.347l-.105.107a9.228 9.228 0 0 0-.122.13l-.1.109-.12.136c-.03.036-.063.072-.094.11-.04.047-.078.096-.117.144l-.087.109-.12.159-.075.1c-.05.07-.098.14-.147.211l-.038.056c-.06.09-.118.18-.175.271l-.057.096c-.037.06-.074.122-.109.184l-.064.116-.092.169-.064.126-.082.164-.062.133-.074.164-.058.137a8.974 8.974 0 0 0-.533 1.745l-.03.146-.03.184-.023.145c-.01.063-.017.126-.025.19l-.018.141-.018.201-.012.134c-.006.075-.01.15-.013.225l-.006.112a9.437 9.437 0 0 0 .003.707.52.52 0 0 0 .011.087l.002.007a.501.501 0 0 0 .025.08l.003.007c.011.026.024.05.04.073l.005.009a.517.517 0 0 0 .05.063l.004.005.067.071c.05.055.101.109.154.161a12.454 12.454 0 0 0 8.834 3.654c3.2 0 6.399-1.218 8.834-3.654.053-.052.104-.107.155-.16l.067-.072a12.426 12.426 0 0 0 3.435-8.752 12.417 12.417 0 0 0-3.656-8.684z"/>
    </g>
</svg>
