<svg xmlns="http://www.w3.org/2000/svg" width="45" height="45" viewBox="0 0 45 45">
    <defs>
        <linearGradient id="a" x1="100%" x2="0%" y1="50%" y2="50%">
            <stop offset="0%" stop-color="#35BAD5"/>
            <stop offset="56.931%" stop-color="#35BAD5"/>
            <stop offset="100%" stop-color="#35BAD5"/>
        </linearGradient>
    </defs>
    <g fill="none" fill-rule="evenodd">
        <circle cx="22.5" cy="22.5" r="22.5" fill="url(#a)"/>
        <g fill="#FFF" fill-rule="nonzero">
            <path d="M26.383 27.556H12.766a3.4 3.4 0 0 0-3.404-3.389v-5.422a3.4 3.4 0 0 0 3.404-3.39h16.34a3.4 3.4 0 0 0 3.405 3.39V20.1a.68.68 0 0 0 .68.678.68.68 0 0 0 .681-.678v-5.422a.676.676 0 0 0-.68-.678H8.68a.682.682 0 0 0-.681.678v13.556a.676.676 0 0 0 .68.678h17.703a.68.68 0 0 0 .68-.678.68.68 0 0 0-.68-.678zm6.128-10.167a2.04 2.04 0 0 1-2.043-2.033h2.043v2.033zM9.36 15.356h2.043a2.04 2.04 0 0 1-2.042 2.033v-2.033zm0 10.167a2.04 2.04 0 0 1 2.043 2.033H9.362v-2.033z"/>
            <path d="M33.191 22.134c-2.716 0-4.765 1.166-4.765 2.711v5.423c0 1.545 2.049 2.71 4.765 2.71 2.717 0 4.766-1.165 4.766-2.71v-5.423c0-1.545-2.049-2.711-4.766-2.711zm3.405 5.422c0 .553-1.327 1.356-3.405 1.356-2.077 0-3.404-.803-3.404-1.356v-.777c1.05.542 2.222.81 3.404.777a6.995 6.995 0 0 0 3.405-.777v.777zM33.19 23.49c2.078 0 3.405.803 3.405 1.356s-1.327 1.356-3.405 1.356c-2.077 0-3.404-.803-3.404-1.356s1.327-1.356 3.404-1.356zm0 8.134c-2.077 0-3.404-.803-3.404-1.355v-.778c1.05.543 2.222.81 3.404.778a6.995 6.995 0 0 0 3.405-.778v.778c0 .552-1.327 1.355-3.405 1.355zM17.532 21.456a3.397 3.397 0 0 0 3.404 3.389 3.397 3.397 0 0 0 3.404-3.389 3.397 3.397 0 0 0-3.404-3.39 3.4 3.4 0 0 0-3.404 3.39zm5.447 0a2.038 2.038 0 0 1-2.043 2.033 2.038 2.038 0 0 1-2.042-2.033c0-1.123.914-2.033 2.042-2.033a2.04 2.04 0 0 1 2.043 2.033z"/>
        </g>
    </g>
</svg>
