<svg xmlns="http://www.w3.org/2000/svg" width="79" height="37" viewBox="0 0 79 37">
    <defs>
        <linearGradient id="a" x1="100%" x2="0%" y1="50%" y2="50%">
            <stop offset="0%" stop-color="#5353A1"/>
            <stop offset="100%" stop-color="#35BAD5"/>
        </linearGradient>
    </defs>
    <g fill="none" fill-rule="nonzero">
        <path fill="url(#a)" d="M75.33 0H27.835c-2.023 0-3.67 1.631-3.67 3.636v29.728c0 2.005 1.647 3.636 3.67 3.636H75.33C77.354 37 79 35.369 79 33.364V3.636C79 1.631 77.354 0 75.33 0zM27.835 2.318H75.33c.557 0 1.035.342 1.233.825L56.05 18.88a7.35 7.35 0 0 1-8.935 0L26.6 3.143a1.332 1.332 0 0 1 1.233-.825zM76.66 31L63.548 20.94a1.177 1.177 0 0 0-1.641.207 1.152 1.152 0 0 0 .209 1.626l14.447 11.084a1.331 1.331 0 0 1-1.232.825H27.834a1.332 1.332 0 0 1-1.233-.824L41.05 22.773c.51-.392.604-1.12.209-1.626a1.177 1.177 0 0 0-1.641-.207L26.503 31.001V6l19.18 14.715a9.678 9.678 0 0 0 5.9 1.999 9.678 9.678 0 0 0 5.898-1.999l19.18-14.715v25.002z"/>
        <path fill="#5353A1" d="M21.115 20.35H5.838c-.658 0-1.19.621-1.19 1.387 0 .767.532 1.388 1.19 1.388h15.277c.658 0 1.19-.621 1.19-1.387 0-.767-.532-1.388-1.19-1.388zM20.257 26.825H1.12c-.618 0-1.119.621-1.119 1.387C0 28.98.501 29.6 1.12 29.6h19.137c.618 0 1.12-.621 1.12-1.388 0-.766-.502-1.387-1.12-1.387zM21.16 14.8H11.37c-.633 0-1.145.621-1.145 1.387 0 .767.512 1.388 1.145 1.388h9.792c.632 0 1.145-.621 1.145-1.387 0-.767-.513-1.388-1.145-1.388zM21.121 8.325h-5.066c-.654 0-1.184.621-1.184 1.388 0 .766.53 1.387 1.184 1.387h5.066c.654 0 1.185-.621 1.185-1.387 0-.767-.53-1.388-1.185-1.388z"/>
    </g>
</svg>
