<svg xmlns="http://www.w3.org/2000/svg" width="70" height="70" viewBox="0 0 70 70">
    <defs>
        <linearGradient id="a" x1="100%" x2="0%" y1="50%" y2="50%">
            <stop offset="0%" stop-color="#5353A1"/>
            <stop offset="100%" stop-color="#35BAD5"/>
        </linearGradient>
    </defs>
    <path fill="url(#a)" fill-rule="nonzero" d="M59.715 10.242c-13.64-13.639-35.832-13.639-49.472 0A34.837 34.837 0 0 0 .777 27.628 35.046 35.046 0 0 0 2.075 46.85a1.424 1.424 0 0 0 2.679-.965A32.2 32.2 0 0 1 3.56 28.223a31.995 31.995 0 0 1 8.696-15.968C24.786-.274 45.172-.274 57.7 12.255c5.967 5.967 9.307 13.899 9.405 22.334.098 8.42-3.04 16.415-8.835 22.511l-.205.217c-.12.129-.24.257-.365.383-12.529 12.529-32.915 12.529-45.444 0a10.46 10.46 0 0 1-.196-.203 15.444 15.444 0 0 1-.006-.388c0-.287.005-.572.016-.857.003-.095.01-.19.015-.284.01-.19.018-.379.032-.567.008-.112.02-.223.03-.335.015-.17.03-.34.048-.508.013-.119.03-.237.045-.356.02-.16.04-.32.063-.48.018-.121.04-.242.06-.363.025-.155.05-.31.078-.465.023-.122.048-.243.073-.365.03-.151.06-.303.094-.454.028-.122.058-.243.087-.365.036-.148.071-.297.11-.444.032-.122.066-.243.1-.364.04-.145.081-.29.124-.435l.114-.361c.046-.143.091-.285.14-.427.04-.12.083-.238.126-.357.05-.14.1-.28.154-.42a22.535 22.535 0 0 1 .308-.764 22.533 22.533 0 0 1 .498-1.092 23.855 23.855 0 0 1 .586-1.122 23.065 23.065 0 0 1 1.53-2.384l.27-.358c.076-.098.15-.197.227-.294a22.34 22.34 0 0 1 .82-.976c.08-.092.162-.183.244-.274.103-.112.208-.222.314-.333.084-.088.167-.177.253-.264.108-.11.218-.217.328-.324.086-.084.172-.17.26-.253.113-.107.23-.212.345-.317.088-.08.175-.16.265-.24.119-.104.241-.206.363-.31.09-.074.178-.15.268-.225.126-.103.255-.203.384-.303.09-.07.178-.142.268-.21.136-.103.274-.203.412-.302.087-.063.173-.128.261-.19.152-.107.308-.21.464-.314.076-.05.151-.104.229-.154.202-.132.408-.26.616-.385l.096-.06c.24-.144.484-.283.73-.419.084-.046.17-.09.256-.135.164-.087.327-.175.493-.259.106-.053.216-.104.323-.156.136-.065.271-.132.408-.195a13.919 13.919 0 0 0 9.596 3.86c3.573 0 7.016-1.395 9.597-3.86 5.037 2.33 9.16 6.514 11.398 11.6a1.424 1.424 0 1 0 2.606-1.146A25.667 25.667 0 0 0 46.474 34.05a13.844 13.844 0 0 0 2.413-7.806c0-7.668-6.24-13.907-13.908-13.907a1.424 1.424 0 0 0 0 2.848c6.099 0 11.06 4.961 11.06 11.06 0 2.726-1.013 5.352-2.853 7.393h-.001a11.075 11.075 0 0 1-8.206 3.666 11.075 11.075 0 0 1-8.206-3.666h-.001a11.03 11.03 0 0 1-2.853-7.393c0-2.977 1.165-5.77 3.282-7.863a1.424 1.424 0 1 0-2.003-2.024 13.806 13.806 0 0 0-4.126 9.886c0 2.795.844 5.504 2.407 7.8-.014.006-.027.014-.041.021-.111.056-.22.115-.33.171-.168.088-.338.174-.504.265-.118.064-.233.132-.35.197-.155.088-.31.176-.464.267-.118.07-.235.144-.353.216-.147.09-.294.181-.44.274-.118.077-.234.155-.351.233-.14.093-.281.188-.42.284a26.216 26.216 0 0 0-1.477 1.11 27.944 27.944 0 0 0-1.026.873 25.415 25.415 0 0 0-1.022.972c-.1.1-.199.198-.296.3-.115.119-.228.24-.34.361-.095.102-.19.203-.282.306-.113.126-.223.254-.333.381-.088.102-.178.204-.265.308-.111.133-.22.27-.328.405-.081.101-.164.201-.243.303-.115.147-.225.297-.336.447-.07.094-.142.186-.21.281-.14.195-.277.392-.411.59-.036.053-.073.103-.108.156-.168.25-.331.504-.49.76-.055.089-.106.179-.16.268-.103.17-.206.341-.305.514-.061.108-.12.218-.18.327-.086.156-.173.312-.257.471-.061.117-.12.236-.18.355-.077.153-.155.305-.229.46-.059.122-.115.247-.172.37-.07.153-.141.305-.208.46a25.128 25.128 0 0 0-.673 1.703 28.298 28.298 0 0 0-.416 1.276 25.318 25.318 0 0 0-.567 2.29c-.027.136-.055.272-.08.41-.031.17-.06.342-.087.513-.022.135-.045.27-.065.406-.025.177-.047.355-.07.533-.016.132-.034.264-.049.396-.02.187-.036.374-.052.562-.01.125-.024.25-.033.375-.015.21-.025.42-.035.631-.005.105-.013.209-.017.314-.011.316-.018.633-.018.951 0 .344.012.67.026 1.028.003.083.015.164.031.243l.004.018c.018.078.042.152.072.225l.008.02c.031.072.068.14.109.204l.015.024c.043.064.09.123.142.179l.01.013.188.2c.142.152.283.303.432.451 6.82 6.82 15.777 10.23 24.735 10.23s17.916-3.41 24.736-10.23c.148-.148.29-.3.432-.451l.188-.2c6.309-6.637 9.725-15.34 9.618-24.506-.106-9.184-3.742-17.82-10.237-24.315z"/>
</svg>
